/vscmnt/brussel_pixiu_data/_data_brussel/112/vsc11236/PredSimResults/SUBJ11mtu3D/worker2.mot
version=1
nRows=8
nColumns=50
inDegrees=yes
endheader
                time	         pelvis_tilt	         pelvis_list	     pelvis_rotation	           pelvis_tx	           pelvis_ty	           pelvis_tz	       hip_flexion_r	     hip_adduction_r	      hip_rotation_r	        knee_angle_r	       ankle_angle_r	         mtp_angle_r	       hip_flexion_l	     hip_adduction_l	      hip_rotation_l	        knee_angle_l	       ankle_angle_l	         mtp_angle_l	    lumbar_extension	      lumbar_bending	     lumbar_rotation	 ercspn_r/activation	 intobl_r/activation	 extobl_r/activation	    abd_r/activation	    add_r/activation	hamstrings_r/activation	bifemsh_r/activation	glut_max_r/activation	iliopsoas_r/activation	rect_fem_r/activation	  vasti_r/activation	gastroc_r/activation	 soleus_r/activation	tib_ant_r/activation	 ercspn_l/activation	 intobl_l/activation	 extobl_l/activation	    abd_l/activation	    add_l/activation	hamstrings_l/activation	bifemsh_l/activation	glut_max_l/activation	iliopsoas_l/activation	rect_fem_l/activation	  vasti_l/activation	gastroc_l/activation	 soleus_l/activation	tib_ant_l/activation	
          0.67085963	         -2.47344220	          1.04559140	         -6.09221157	          0.73794559	          0.94290744	          0.00834784	        -15.05110183	         -2.91821937	         -0.81298238	         -9.80812282	         12.86091147	         26.95216125	         30.70329816	         -2.00188029	         -3.93107782	         -9.07216567	          3.03469957	          0.22161787	        -14.11747636	          1.51864136	          4.14147516	          0.00999999	          0.00999999	          0.00999999	          0.04205655	          0.00999999	          0.02763914	          0.25805006	          0.02241742	          0.27215801	          0.00999999	          0.00999999	          0.14560667	          0.28725753	          0.01497244	          0.04323027	          0.24838879	          0.05998171	          0.01223619	          0.16440893	          0.07380884	          0.14971338	          0.02541964	          0.07663855	          0.03377837	          0.00999999	          0.00999999	          0.00999999	          0.44597031	
          0.68427682	         -2.60045819	          1.08675059	         -6.16421738	          0.75635185	          0.94071738	          0.00722907	        -15.55636625	         -3.13541331	         -1.16453964	        -10.64417984	         12.15709677	         28.83021298	         30.46959096	         -1.81749069	         -4.15326192	        -10.05004026	          2.47857693	          0.24579472	        -13.68281218	          1.06757143	          4.42809412	          0.03899906	          0.00999999	          0.00999999	          0.03437060	          0.03141501	          0.02258801	          0.21089071	          0.01832058	          0.23000454	          0.00999999	          0.00999999	          0.11899665	          0.26810847	          0.01223619	          0.03532982	          0.20299506	          0.04901989	          0.00999999	          0.18764766	          0.06032008	          0.12235285	          0.09572930	          0.06263264	          0.02760528	          0.00999999	          0.01223619	          0.01497244	          0.46439011	
          0.69769401	         -2.70384098	          1.13959216	         -6.21157515	          0.77519568	          0.93876986	          0.00605082	        -15.97088338	         -3.37233216	         -1.53190809	        -11.70700481	         11.30860410	         30.77455991	         30.17374603	         -1.66055868	         -4.29880568	        -11.28745441	          1.98578715	          0.21241018	        -13.21132066	          0.59555664	          4.70567062	          0.03187188	          0.00999999	          0.00999999	          0.02808928	          0.02567383	          0.01845999	          0.17234985	          0.01497244	          0.23794615	          0.00999999	          0.00999999	          0.09724969	          0.24436637	          0.00999999	          0.03591262	          0.16589716	          0.04006137	          0.07517264	          0.20392126	          0.05388977	          0.09999254	          0.11652352	          0.05118636	          0.02256034	          0.00999999	          0.01000000	          0.01223619	          0.52612789	
          0.71111121	         -2.78737716	          1.17934733	         -6.22318782	          0.79413288	          0.93732804	          0.00478580	        -16.17050396	         -3.60176770	         -1.91437569	        -13.16119734	         10.27451872	         32.79598182	         29.90612284	         -1.52670769	         -4.49463980	        -12.56102429	          1.28265844	          0.18955817	        -12.74524538	          0.13573973	          4.96405062	          0.06422310	          0.00999999	          0.00999999	          0.02295589	          0.02688680	          0.02628288	          0.14085245	          0.01223619	          0.19446084	          0.00999999	          0.00999999	          0.07947704	          0.20738143	          0.00999999	          0.03994069	          0.13557900	          0.03274004	          0.11206782	          0.24136547	          0.04936044	          0.08171863	          0.11480000	          0.04183191	          0.01843738	          0.04171840	          0.00999999	          0.00999999	          0.58115606	
          0.72452840	         -2.85135010	          1.20887856	         -6.20327076	          0.81298202	          0.93653122	          0.00344359	        -16.06943010	         -3.83077345	         -2.30727665	        -15.12911724	          9.05534448	         34.82871341	         29.70017122	         -1.40622217	         -4.71331750	        -13.97348268	          0.68340469	          0.14043505	        -12.30175670	         -0.31314989	          5.20148805	          0.07959886	          0.00999999	          0.00999999	          0.01876063	          0.08287773	          0.02147968	          0.11511128	          0.00999999	          0.15892259	          0.00999999	          0.00999999	          0.06495239	          0.16948191	          0.00999999	          0.03734962	          0.11080157	          0.02675671	          0.13557765	          0.27399459	          0.05263319	          0.06678432	          0.10805644	          0.03418701	          0.01506790	          0.09665256	          0.00999999	          0.00999999	          0.61735921	
          0.73794559	         -2.89727952	          1.22460698	         -6.15115281	          0.83162879	          0.93646633	          0.00204613	        -15.59403752	         -4.05808806	         -2.71503550	        -17.71554405	          7.64868070	         36.75090671	         29.46510584	         -1.28797421	         -4.91174797	        -15.40202625	          0.39037449	          0.09109243	        -11.88921721	         -0.74666056	          5.41338382	          0.10058576	          0.00999999	          0.00999999	          0.01533208	          0.13529679	          0.02858832	          0.09407438	          0.00999999	          0.12987905	          0.00999999	          0.00999999	          0.05308217	          0.13850863	          0.00999999	          0.03052387	          0.09055228	          0.02186685	          0.15528345	          0.28665164	          0.05520532	          0.05457931	          0.12179858	          0.02793924	          0.01231420	          0.14071186	          0.00999999	          0.00999999	          0.61516386	
          0.75136278	         -2.92795390	          1.22592267	         -6.06451907	          0.84990539	          0.93723327	          0.00062804	        -14.67897590	         -4.28670676	         -3.14992785	        -20.98836950	          6.03332682	         38.37366173	         29.13439259	         -1.16078480	         -5.05408629	        -16.71329201	          0.41344009	          0.05196655	        -11.52194691	         -1.16650661	          5.59333769	          0.10911130	          0.00999999	          0.00999999	          0.01253010	          0.17639406	          0.06618105	          0.08409881	          0.00999999	          0.10614330	          0.00999999	          0.00999999	          0.04338126	          0.11319580	          0.00999999	          0.02494555	          0.07400360	          0.01787062	          0.16435232	          0.29681881	          0.05882367	          0.04460479	          0.12324025	          0.02283327	          0.01006374	          0.16666432	          0.00999999	          0.00999999	          0.58325107	
          0.76477998	         -2.94507015	          1.20491412	         -5.94116368	          0.86770520	          0.93883671	         -0.00077179	        -13.29953917	         -4.51942502	         -3.63870405	        -24.97436332	          4.34704507	         39.15800875	         28.66725751	         -1.02675676	         -5.12119282	        -17.80982828	          0.68169864	          0.03103212	        -11.20886057	         -1.56757663	          5.73641142	          0.09917432	          0.00999999	          0.00999999	          0.01024019	          0.21762438	          0.05408628	          0.06978645	          0.00999999	          0.08674532	          0.00999999	          0.00999999	          0.03545321	          0.09250896	          0.00999999	          0.02038668	          0.06047924	          0.01460472	          0.16360151	          0.29964253	          0.06526839	          0.03645314	          0.11306970	          0.01866043	          0.00999999	          0.19042870	          0.00999999	          0.00999999	          0.53489322	
